<svg width="21" height="21" viewBox="0 0 21 21" fill="none" xmlns="http://www.w3.org/2000/svg">
<path d="M20.2976 17.9817L16.0789 13.7629C16.5867 13.0468 16.9773 12.2688 17.2507 11.429C17.5242 10.5891 17.6609 9.71997 17.6609 8.82153C17.6609 8.26164 17.6088 7.70825 17.5046 7.16138C17.4005 6.6145 17.241 6.08716 17.0261 5.57935C16.8113 5.07153 16.5541 4.58325 16.2546 4.1145C15.9421 3.65877 15.5841 3.22909 15.1804 2.82544C14.7768 2.42179 14.3471 2.07023 13.8914 1.77075C13.4226 1.45825 12.9343 1.19784 12.4265 0.989502C11.9187 0.781169 11.3979 0.618408 10.864 0.501221C10.3171 0.397054 9.75724 0.344971 9.18433 0.344971C8.62443 0.344971 8.07104 0.397054 7.52417 0.501221C6.97729 0.618408 6.44995 0.781169 5.94214 0.989502C5.43433 1.19784 4.94604 1.45825 4.47729 1.77075C4.02157 2.07023 3.59188 2.42179 3.18823 2.82544C2.78459 3.22909 2.43302 3.65877 2.13354 4.1145C1.82104 4.58325 1.56063 5.07153 1.35229 5.57935C1.14396 6.08716 0.981201 6.6145 0.864014 7.16138C0.759847 7.70825 0.707764 8.26164 0.707764 8.82153C0.707764 9.39445 0.759847 9.94784 0.864014 10.4817C0.981201 11.0286 1.14396 11.5559 1.35229 12.0637C1.56063 12.5715 1.82104 13.0598 2.13354 13.5286C2.43302 13.9843 2.78459 14.414 3.18823 14.8176C3.59188 15.2213 4.02157 15.5793 4.47729 15.8918C4.94604 16.1913 5.43433 16.4485 5.94214 16.6633C6.44995 16.8782 6.97729 17.0377 7.52417 17.1418C8.07104 17.246 8.62443 17.2981 9.18433 17.2981C10.0828 17.2981 10.9519 17.1614 11.7917 16.8879C12.6316 16.6145 13.4096 16.2239 14.1257 15.7161L18.3445 19.9348C18.4877 20.078 18.644 20.1822 18.8132 20.2473C18.9825 20.3124 19.1518 20.345 19.321 20.345C19.5033 20.345 19.6791 20.3124 19.8484 20.2473C20.0177 20.1822 20.1674 20.078 20.2976 19.9348C20.571 19.6744 20.7078 19.3521 20.7078 18.968C20.7078 18.5839 20.571 18.2551 20.2976 17.9817ZM5.14136 12.8645C4.6075 12.3306 4.19735 11.7154 3.91089 11.0188C3.62443 10.3222 3.4812 9.58976 3.4812 8.82153C3.4812 8.06632 3.62443 7.34041 3.91089 6.6438C4.19735 5.94718 4.6075 5.32544 5.14136 4.77856C5.68823 4.24471 6.30998 3.83455 7.00659 3.5481C7.70321 3.26164 8.42912 3.11841 9.18433 3.11841C9.95256 3.11841 10.685 3.26164 11.3816 3.5481C12.0782 3.83455 12.6934 4.24471 13.2273 4.77856C13.7611 5.32544 14.1746 5.94718 14.4675 6.6438C14.7605 7.34041 14.907 8.06632 14.907 8.82153C14.907 9.58976 14.7605 10.3222 14.4675 11.0188C14.1746 11.7154 13.7611 12.3306 13.2273 12.8645C12.6934 13.4114 12.0782 13.828 11.3816 14.1145C10.685 14.401 9.95256 14.5442 9.18433 14.5442C8.4161 14.5442 7.68693 14.3977 6.99683 14.1047C6.30672 13.8118 5.68823 13.3984 5.14136 12.8645Z" fill="#1991EB"/>
</svg>
